<svg width="18" height="16" viewBox="0 0 18 16" fill="none" xmlns="http://www.w3.org/2000/svg">
<path d="M17.8808 7.54859C17.1551 6.01974 16.2915 4.77288 15.29 3.80801L14.2397 4.85834C15.0962 5.67685 15.8422 6.74763 16.4873 8.08119C14.7698 11.636 12.3318 13.3246 8.99999 13.3246C7.99989 13.3246 7.07871 13.1706 6.23646 12.8626L5.09839 14.0007C6.26818 14.5408 7.56871 14.8109 8.99999 14.8109C12.9676 14.8109 15.9279 12.7445 17.8808 8.61172C17.9593 8.44551 18 8.26398 18 8.08016C18 7.89634 17.9593 7.7148 17.8808 7.54859ZM16.5685 0.929495L15.6884 0.0484354C15.6731 0.0330806 15.6549 0.0208996 15.6348 0.0125887C15.6148 0.00427779 15.5933 0 15.5716 0C15.5499 0 15.5284 0.00427779 15.5084 0.0125887C15.4883 0.0208996 15.4701 0.0330806 15.4548 0.0484354L13.197 2.30517C11.9522 1.66935 10.5532 1.35145 8.99999 1.35145C5.03233 1.35145 2.07207 3.41785 0.119206 7.55065C0.0407101 7.71687 0 7.8984 0 8.08222C0 8.26604 0.0407101 8.44757 0.119206 8.61379C0.899388 10.257 1.83866 11.5741 2.93703 12.5651L0.752545 14.749C0.721597 14.78 0.704213 14.822 0.704213 14.8657C0.704213 14.9095 0.721597 14.9515 0.752545 14.9825L1.63381 15.8637C1.66478 15.8947 1.70677 15.9121 1.75055 15.9121C1.79433 15.9121 1.83632 15.8947 1.86729 15.8637L16.5685 1.16318C16.5838 1.14784 16.596 1.12963 16.6043 1.10958C16.6126 1.08953 16.6169 1.06804 16.6169 1.04634C16.6169 1.02463 16.6126 1.00314 16.6043 0.983095C16.596 0.963046 16.5838 0.944833 16.5685 0.929495ZM1.51263 8.08119C3.23223 4.5264 5.67021 2.83777 8.99999 2.83777C10.1259 2.83777 11.1496 3.03099 12.0783 3.42383L10.6271 4.87506C9.93982 4.50836 9.15287 4.37227 8.38235 4.48686C7.61183 4.60145 6.89854 4.96065 6.34771 5.51148C5.79688 6.06231 5.43767 6.7756 5.32308 7.54612C5.20849 8.31664 5.34459 9.10359 5.71129 9.79087L3.98922 11.5129C3.03612 10.6717 2.21451 9.532 1.51263 8.08119ZM6.60536 8.08119C6.60572 7.71717 6.69194 7.35837 6.85702 7.03394C7.0221 6.70951 7.26138 6.42859 7.55543 6.21401C7.84947 5.99943 8.18999 5.85724 8.54932 5.79898C8.90864 5.74073 9.27664 5.76806 9.62342 5.87875L6.71497 8.78719C6.64207 8.55896 6.60509 8.32078 6.60536 8.08119Z" fill="black" fill-opacity="0.44"/>
<path d="M8.9174 10.3931C8.84597 10.3931 8.77558 10.3898 8.7058 10.3834L7.61542 11.4738C8.27124 11.725 8.98577 11.7808 9.67263 11.6345C10.3595 11.4882 10.9893 11.1461 11.4859 10.6495C11.9824 10.153 12.3246 9.52316 12.4708 8.8363C12.6171 8.14944 12.5613 7.4349 12.3101 6.77908L11.2198 7.86947C11.2262 7.93924 11.2295 8.00964 11.2295 8.08106C11.2296 8.38473 11.1699 8.68546 11.0538 8.96604C10.9377 9.24663 10.7674 9.50157 10.5526 9.7163C10.3379 9.93102 10.083 10.1013 9.80237 10.2175C9.52179 10.3336 9.22107 10.3933 8.9174 10.3931V10.3931Z" fill="black" fill-opacity="0.44"/>
</svg>
